<?xml version="1.0" standalone="no"?>
<!DOCTYPE svg PUBLIC "-//W3C//DTD SVG 20010904//EN"
 "http://www.w3.org/TR/2001/REC-SVG-20010904/DTD/svg10.dtd">
<svg version="1.0" xmlns="http://www.w3.org/2000/svg"
 width="244.000000pt" height="93.000000pt" viewBox="0 0 244.000000 93.000000"
 preserveAspectRatio="xMidYMid meet">

<g transform="translate(0.000000,93.000000) scale(0.100000,-0.100000)"
fill="#000000" stroke="none">
<path d="M238 694 c-117 -115 -215 -215 -216 -222 -3 -11 405 -421 428 -430 7
-2 250 234 250 243 0 3 -40 5 -88 5 l-89 0 -32 -36 c-18 -19 -36 -34 -41 -32
-12 4 -250 240 -250 247 0 10 244 251 254 251 4 0 24 -18 44 -40 l35 -40 83 2
c46 1 84 5 84 9 0 3 -19 25 -42 49 -65 66 -28 62 42 -4 57 -55 60 -56 117 -56
116 0 116 2 13 101 l-91 89 -89 0 c-60 0 -90 -4 -92 -12 -3 -7 -26 8 -56 36
l-52 48 -212 -208z"/>
<path d="M842 773 c2 -5 30 -33 63 -64 l60 -57 83 -4 c45 -3 82 -2 82 1 0 4
-28 35 -63 69 l-63 62 -83 0 c-45 0 -81 -3 -79 -7z"/>
<path d="M364 556 c-9 -23 5 -37 34 -34 27 3 27 3 32 -77 4 -72 7 -80 25 -80
18 0 20 8 23 77 l3 77 32 3 c24 2 32 8 32 23 0 18 -8 20 -88 23 -70 2 -88 0
-93 -12z"/>
<path d="M585 545 c-19 -18 -25 -35 -25 -70 0 -51 20 -99 45 -109 24 -9 80 -7
108 3 51 20 62 146 17 183 -35 28 -115 24 -145 -7z m117 -39 c13 -20 8 -74 -8
-90 -18 -19 -55 -21 -72 -4 -7 7 -12 31 -12 55 0 36 4 45 23 53 25 10 58 3 69
-14z"/>
<path d="M800 465 c0 -98 1 -105 20 -105 18 0 20 7 20 79 0 85 3 90 51 83 28
-4 28 -5 31 -81 3 -68 5 -76 23 -76 18 0 20 8 23 96 3 112 6 109 -105 109
l-63 0 0 -105z"/>
<path d="M1064 563 c-15 -11 -76 -182 -69 -194 11 -16 32 -9 49 16 12 18 25
25 50 25 25 0 38 -7 50 -25 16 -25 40 -33 50 -17 3 5 -10 51 -28 103 -31 87
-36 94 -62 97 -16 1 -34 -1 -40 -5z m50 -90 c6 -20 4 -23 -18 -23 -29 0 -31 6
-15 47 11 30 19 24 33 -24z"/>
<path d="M1222 468 c3 -95 4 -103 23 -103 18 0 20 8 23 77 l3 77 42 3 c35 2
43 7 45 26 3 21 0 22 -68 22 l-71 0 3 -102z"/>
<path d="M1384 557 c-3 -8 -4 -54 -2 -103 3 -81 5 -89 23 -89 14 0 21 8 25 30
5 28 9 30 50 33 52 3 70 21 70 69 0 52 -28 73 -100 73 -41 0 -62 -4 -66 -13z
m112 -52 c9 -21 -15 -47 -40 -43 -15 2 -22 12 -24 31 -3 24 0 27 28 27 18 0
33 -6 36 -15z"/>
<path d="M1612 563 c-19 -7 -42 -58 -42 -91 0 -79 33 -112 111 -112 61 0 89
33 89 105 0 76 -28 105 -97 104 -26 0 -54 -3 -61 -6z m106 -92 c4 -51 -10 -71
-49 -71 -35 0 -54 37 -44 87 6 34 24 43 65 33 21 -5 25 -13 28 -49z"/>
<path d="M1812 468 l3 -103 73 0 c80 0 92 7 92 61 0 42 -27 64 -78 64 -30 0
-42 4 -42 14 0 11 15 16 53 18 44 3 52 6 52 23 0 18 -8 20 -78 23 l-78 3 3
-103z m113 -43 c0 -15 -8 -21 -32 -23 -30 -3 -33 -1 -33 23 0 24 3 26 33 23
24 -2 32 -8 32 -23z"/>
<path d="M2024 556 c-3 -7 -4 -53 -2 -102 l3 -89 73 -3 c67 -3 72 -1 72 18 0
20 -6 22 -70 24 -18 1 -26 7 -28 24 -3 19 1 22 32 22 29 0 36 4 36 20 0 16 -7
20 -35 20 -24 0 -35 5 -35 15 0 11 12 15 51 15 47 0 50 2 47 23 -3 20 -9 22
-71 24 -47 1 -70 -2 -73 -11z"/>
<path d="M2235 558 c-7 -19 -25 -105 -32 -155 -4 -34 -3 -43 9 -43 25 0 36 22
50 93 11 59 15 67 35 67 21 0 22 -5 25 -77 3 -73 5 -78 26 -81 23 -3 23 -3 20
100 l-3 103 -63 3 c-45 3 -63 0 -67 -10z"/>
</g>
</svg>
